<svg width="41" height="40" viewBox="0 0 41 40" fill="none" xmlns="http://www.w3.org/2000/svg">
<g clip-path="url(#clip0_61_6)">
<path d="M40.1721 0.507812C40.1721 0.507812 40.1591 0.507812 40.1331 0.507812C39.9768 0.351562 39.788 0.227865 39.5666 0.136719C39.3453 0.0455729 39.1174 0 38.8831 0C38.7008 0 38.512 0.0325521 38.3166 0.0976562C38.1213 0.16276 37.9456 0.260417 37.7893 0.390625C36.7216 1.25 35.6539 2.10938 34.5862 2.96875C33.5185 3.82812 32.4573 4.69401 31.4026 5.56641C30.3479 6.4388 29.2997 7.30469 28.2581 8.16406C27.1903 9.04948 26.1357 9.9349 25.094 10.8203C24.5992 11.237 24.0979 11.6602 23.5901 12.0898C23.0823 12.5195 22.568 12.9557 22.0471 13.3984L10.4846 1.83594C9.9117 1.26302 9.2216 0.976562 8.41431 0.976562C7.60701 0.976562 6.91691 1.26302 6.34399 1.83594L0.836182 7.30469C0.732015 7.4349 0.679932 7.57812 0.679932 7.73438C0.679932 7.89062 0.732015 8.03385 0.836182 8.16406C0.96639 8.26823 1.10962 8.32031 1.26587 8.32031C1.42212 8.32031 1.56535 8.26823 1.69556 8.16406L5.52368 4.29688L6.34399 5.15625L2.51587 8.98438C2.4117 9.11458 2.35962 9.25781 2.35962 9.41406C2.35962 9.57031 2.4117 9.70052 2.51587 9.80469C2.56795 9.88281 2.63306 9.9349 2.71118 9.96094C2.78931 9.98698 2.86743 10 2.94556 10C3.02368 10 3.0953 9.98698 3.1604 9.96094C3.2255 9.9349 3.2841 9.88281 3.33618 9.80469L7.20337 5.97656L8.02368 6.83594L4.19556 10.6641C4.06535 10.7682 4.00024 10.9049 4.00024 11.0742C4.00024 11.2435 4.06535 11.3802 4.19556 11.4844C4.24764 11.5365 4.30623 11.5755 4.37134 11.6016C4.43644 11.6276 4.50806 11.6406 4.58618 11.6406C4.66431 11.6406 4.74243 11.6276 4.82056 11.6016C4.89868 11.5755 4.96379 11.5365 5.01587 11.4844L8.84399 7.65625L9.70337 8.47656L5.83618 12.3438C5.73201 12.4479 5.67993 12.5781 5.67993 12.7344C5.67993 12.8906 5.73201 13.0339 5.83618 13.1641C5.91431 13.2161 5.98592 13.2552 6.05102 13.2812C6.11613 13.3073 6.18774 13.3203 6.26587 13.3203C6.34399 13.3203 6.41561 13.3073 6.48071 13.2812C6.54582 13.2552 6.61743 13.2161 6.69556 13.1641L10.5237 9.29688L11.344 10.1562L7.51587 13.9844C7.4117 14.1146 7.35962 14.2578 7.35962 14.4141C7.35962 14.5703 7.4117 14.7005 7.51587 14.8047C7.56795 14.8828 7.63306 14.9349 7.71118 14.9609C7.78931 14.987 7.86743 15 7.94556 15C8.02368 15 8.0953 14.987 8.1604 14.9609C8.2255 14.9349 8.2841 14.8828 8.33618 14.8047L12.2034 10.9766L13.0237 11.8359L9.19556 15.6641C9.06535 15.7682 9.00024 15.9049 9.00024 16.0742C9.00024 16.2435 9.06535 16.3802 9.19556 16.4844C9.24764 16.5365 9.31274 16.5755 9.39087 16.6016C9.46899 16.6276 9.5341 16.6406 9.58618 16.6406C9.66431 16.6406 9.74243 16.6276 9.82056 16.6016C9.89868 16.5755 9.96378 16.5365 10.0159 16.4844L13.844 12.6562L14.7034 13.4766L10.8362 17.3438C10.732 17.4479 10.6799 17.5781 10.6799 17.7344C10.6799 17.8906 10.732 18.0339 10.8362 18.1641C10.9143 18.2161 10.9859 18.2552 11.051 18.2812C11.1161 18.3073 11.1877 18.3203 11.2659 18.3203C11.344 18.3203 11.4156 18.3073 11.4807 18.2812C11.5458 18.2552 11.6174 18.2161 11.6956 18.1641L15.5237 14.3359L16.344 15.1562L12.5159 18.9844C12.4117 19.1146 12.3596 19.2578 12.3596 19.4141C12.3596 19.5703 12.4117 19.7005 12.5159 19.8047C12.568 19.8828 12.6331 19.9349 12.7112 19.9609C12.7893 19.987 12.8674 20 12.9456 20C13.0237 20 13.0953 19.987 13.1604 19.9609C13.2255 19.9349 13.2841 19.8828 13.3362 19.8047L17.2034 15.9766L18.0627 16.8359C17.1513 17.6432 16.2528 18.4375 15.3674 19.2188C14.482 20 13.5966 20.7812 12.7112 21.5625C12.4508 21.7969 12.1773 22.0443 11.8909 22.3047C11.6044 22.5651 11.318 22.8255 11.0315 23.0859C10.8492 23.2161 10.7646 23.3724 10.7776 23.5547C10.7906 23.737 10.8362 23.8672 10.9143 23.9453C11.2008 24.2839 11.4221 24.668 11.5784 25.0977C11.7346 25.5273 11.8127 25.9635 11.8127 26.4062C11.8127 26.9271 11.7151 27.4284 11.5198 27.9102C11.3245 28.3919 11.0315 28.8151 10.6409 29.1797C10.6409 29.1797 10.3479 29.4727 9.76196 30.0586C9.17602 30.6445 8.88306 30.9375 8.88306 30.9375C7.60701 32.2396 6.11613 32.5521 4.4104 31.875C2.70467 31.1979 1.85181 29.9349 1.85181 28.0859C1.85181 26.9661 2.24894 26.0026 3.04321 25.1953C3.83748 24.388 4.80754 23.9844 5.95337 23.9844C6.57837 23.9844 7.17082 24.1211 7.73071 24.3945C8.29061 24.668 8.76587 25.0391 9.15649 25.5078C9.26066 25.638 9.39738 25.7096 9.56665 25.7227C9.73592 25.7357 9.87264 25.6901 9.97681 25.5859C9.97681 25.5859 9.98332 25.5859 9.99634 25.5859C10.0094 25.5859 10.0159 25.5859 10.0159 25.5859C10.1461 25.4557 10.2047 25.293 10.1916 25.0977C10.1786 24.9023 10.094 24.7526 9.93774 24.6484C9.44295 24.0755 8.8505 23.6263 8.1604 23.3008C7.4703 22.9753 6.73462 22.8125 5.95337 22.8125C4.49504 22.8125 3.25155 23.3333 2.2229 24.375C1.19425 25.4167 0.679932 26.6536 0.679932 28.0859C0.679932 29.1797 0.979411 30.1693 1.57837 31.0547C2.17733 31.9401 2.9716 32.5781 3.96118 32.9688C4.56014 33.2031 5.16561 33.3333 5.77759 33.3594C6.38957 33.3854 6.98201 33.3073 7.55493 33.125C7.00806 34.8177 7.26196 36.3867 8.31665 37.832C9.37134 39.2773 10.7971 40 12.594 40C14.0523 40 15.2958 39.4857 16.3245 38.457C17.3531 37.4284 17.8674 36.1849 17.8674 34.7266C17.8674 34.0234 17.7372 33.3594 17.4768 32.7344C17.2164 32.1094 16.8388 31.5495 16.344 31.0547C16.344 31.0547 16.5458 30.8268 16.9495 30.3711C17.3531 29.9154 17.5549 29.6875 17.5549 29.6875C18.5966 28.5156 19.6448 27.3372 20.6995 26.1523C21.7541 24.9674 22.7893 23.7891 23.8049 22.6172L24.7034 23.4766L20.8752 27.3438C20.745 27.4479 20.6799 27.5781 20.6799 27.7344C20.6799 27.8906 20.745 28.0339 20.8752 28.1641C20.9273 28.2161 20.9859 28.2552 21.051 28.2812C21.1161 28.3073 21.1877 28.3203 21.2659 28.3203C21.344 28.3203 21.4221 28.3073 21.5002 28.2812C21.5784 28.2552 21.6435 28.2161 21.6956 28.1641L25.5237 24.3359L26.344 25.1562L22.5159 28.9844C22.4117 29.1146 22.3596 29.2578 22.3596 29.4141C22.3596 29.5703 22.4117 29.7135 22.5159 29.8438C22.568 29.8958 22.6331 29.9349 22.7112 29.9609C22.7893 29.987 22.8674 30 22.9456 30C23.0237 30 23.0953 29.987 23.1604 29.9609C23.2255 29.9349 23.2841 29.8958 23.3362 29.8438L27.2034 25.9766L28.0237 26.8359L24.1956 30.6641C24.0914 30.7682 24.0393 30.9049 24.0393 31.0742C24.0393 31.2435 24.0914 31.3802 24.1956 31.4844C24.2476 31.5365 24.3127 31.582 24.3909 31.6211C24.469 31.6602 24.5471 31.6797 24.6252 31.6797C24.6773 31.6797 24.7424 31.6602 24.8206 31.6211C24.8987 31.582 24.9638 31.5365 25.0159 31.4844L28.844 27.6562L29.7034 28.4766L25.8752 32.3438C25.745 32.4479 25.6799 32.5781 25.6799 32.7344C25.6799 32.8906 25.745 33.0339 25.8752 33.1641C25.9273 33.2161 25.9859 33.2552 26.051 33.2812C26.1161 33.3073 26.1877 33.3203 26.2659 33.3203C26.344 33.3203 26.4221 33.3073 26.5002 33.2812C26.5784 33.2552 26.6435 33.2161 26.6956 33.1641L30.5237 29.3359L31.3831 30.1562L27.5159 33.9844C27.4117 34.1146 27.3596 34.2578 27.3596 34.4141C27.3596 34.5703 27.4117 34.7135 27.5159 34.8438C27.5679 34.8958 27.6331 34.9349 27.7112 34.9609C27.7893 34.987 27.8674 35 27.9456 35C28.0237 35 28.0953 34.987 28.1604 34.9609C28.2255 34.9349 28.2841 34.8958 28.3362 34.8438L32.2034 30.9766L33.0237 31.8359L29.1956 35.6641C29.0914 35.7682 29.0393 35.9049 29.0393 36.0742C29.0393 36.2435 29.0914 36.3802 29.1956 36.4844C29.2476 36.5365 29.3127 36.582 29.3909 36.6211C29.469 36.6602 29.5471 36.6797 29.6252 36.6797C29.6773 36.6797 29.7424 36.6602 29.8206 36.6211C29.8987 36.582 29.9638 36.5365 30.0159 36.4844L33.844 32.6562L34.7034 33.4766L30.8752 37.3438C30.745 37.4479 30.6799 37.5846 30.6799 37.7539C30.6799 37.9232 30.745 38.0599 30.8752 38.1641C30.9273 38.2161 30.9859 38.2552 31.051 38.2812C31.1161 38.3073 31.1877 38.3203 31.2659 38.3203C31.344 38.3203 31.4221 38.3073 31.5002 38.2812C31.5784 38.2552 31.6435 38.2161 31.6956 38.1641L35.5237 34.3359L36.3831 35.1562L32.5159 38.9844C32.4117 39.1146 32.3596 39.2578 32.3596 39.4141C32.3596 39.5703 32.4117 39.7135 32.5159 39.8438C32.594 39.8958 32.6656 39.9349 32.7307 39.9609C32.7958 39.987 32.8674 40 32.9456 40C33.0237 40 33.0953 39.987 33.1604 39.9609C33.2255 39.9349 33.2971 39.8958 33.3752 39.8438L37.594 35.5859L38.844 34.3359C39.1304 34.0495 39.3453 33.7305 39.4885 33.3789C39.6318 33.0273 39.7034 32.6562 39.7034 32.2656C39.7034 31.875 39.6318 31.4974 39.4885 31.1328C39.3453 30.7682 39.1304 30.4557 38.844 30.1953L27.2815 18.5938C28.4013 17.2917 29.5081 15.9896 30.6018 14.6875C31.7216 13.3594 32.8219 12.0443 33.9026 10.7422C34.9833 9.4401 36.0575 8.125 37.1252 6.79688C38.1929 5.49479 39.2476 4.19271 40.2893 2.89062C40.5758 2.52604 40.706 2.1224 40.6799 1.67969C40.6539 1.23698 40.4846 0.846354 40.1721 0.507812ZM6.34399 3.47656L7.16431 2.65625C7.50285 2.31771 7.91951 2.14844 8.41431 2.14844C8.9091 2.14844 9.32576 2.31771 9.66431 2.65625L21.1487 14.1797C20.7841 14.4922 20.4195 14.8047 20.0549 15.1172C19.6903 15.4297 19.3258 15.7552 18.9612 16.0938L6.34399 3.47656ZM38.0237 31.0156C38.1799 31.1719 38.3036 31.3607 38.3948 31.582C38.4859 31.8034 38.5315 32.0312 38.5315 32.2656C38.5315 32.5 38.4859 32.7214 38.3948 32.9297C38.3036 33.138 38.1799 33.3333 38.0237 33.5156L37.2034 34.3359C37.0992 34.2318 36.4221 33.5547 35.1721 32.3047C33.9221 31.0547 32.5484 29.681 31.051 28.1836C29.5536 26.6862 28.1539 25.2865 26.8518 23.9844C25.5497 22.6823 24.7945 21.9271 24.5862 21.7188C24.8987 21.3542 25.2177 20.9831 25.5432 20.6055C25.8687 20.2279 26.1877 19.8568 26.5002 19.4922L38.0237 31.0156ZM17.0081 28.5547C16.8518 28.4245 16.6305 28.2422 16.344 28.0078C16.0575 27.7734 15.8883 27.3958 15.8362 26.875C15.8101 26.7188 15.745 26.5951 15.6409 26.5039C15.5367 26.4128 15.4065 26.3672 15.2502 26.3672C15.068 26.3672 14.9182 26.4323 14.801 26.5625C14.6838 26.6927 14.6383 26.8359 14.6643 26.9922C14.7164 27.487 14.8661 27.9362 15.1135 28.3398C15.3609 28.7435 15.693 29.0755 16.1096 29.3359C16.1096 29.3359 16.1226 29.3424 16.1487 29.3555C16.1747 29.3685 16.2008 29.388 16.2268 29.4141C16.0185 29.6484 15.8232 29.8698 15.6409 30.0781C15.4586 30.2865 15.2763 30.4948 15.094 30.7031C15.0419 30.7552 15.0028 30.8203 14.9768 30.8984C14.9508 30.9766 14.9377 31.0547 14.9377 31.1328C14.9377 31.2109 14.9573 31.2891 14.9963 31.3672C15.0354 31.4453 15.094 31.4974 15.1721 31.5234C15.6669 31.9401 16.0445 32.4219 16.3049 32.9688C16.5653 33.5156 16.6956 34.1016 16.6956 34.7266C16.6956 35.8464 16.2984 36.8099 15.5041 37.6172C14.7099 38.4245 13.7398 38.8281 12.594 38.8281C11.4482 38.8281 10.4781 38.431 9.68384 37.6367C8.88957 36.8424 8.49243 35.8724 8.49243 34.7266C8.49243 33.7891 8.68774 33.0729 9.07837 32.5781C9.46899 32.0833 9.69035 31.8099 9.74243 31.7578L11.5002 30C11.969 29.5312 12.3336 28.9844 12.594 28.3594C12.8544 27.7344 12.9846 27.0833 12.9846 26.4062C12.9846 25.9115 12.913 25.4297 12.7698 24.9609C12.6265 24.4922 12.4247 24.0625 12.1643 23.6719C12.3987 23.4635 12.62 23.2617 12.8284 23.0664C13.0367 22.8711 13.2581 22.6693 13.4924 22.4609C16.6695 19.6224 19.7555 16.9271 22.7502 14.375C25.719 11.8229 28.3687 9.58333 30.6995 7.65625C33.0302 5.72917 34.9247 4.17969 36.3831 3.00781C37.8153 1.86198 38.5575 1.27604 38.6096 1.25C38.5575 1.30208 37.3336 2.52604 34.9377 4.92188C32.5419 7.31771 29.9052 9.95443 27.0276 12.832C24.15 15.7096 21.5133 18.3464 19.1174 20.7422C16.7216 23.138 15.5107 24.349 15.4846 24.375C15.3805 24.5052 15.3284 24.6484 15.3284 24.8047C15.3284 24.9609 15.3935 25.0911 15.5237 25.1953C15.6539 25.2995 15.7971 25.3516 15.9534 25.3516C16.1096 25.3516 16.2398 25.2865 16.344 25.1562C16.37 25.1302 17.581 23.9193 19.9768 21.5234C22.3466 19.1536 24.9703 16.5299 27.8479 13.6523C30.7255 10.7747 33.3622 8.13802 35.7581 5.74219C38.1539 3.34635 39.3778 2.1224 39.4299 2.07031C39.4039 2.09635 38.831 2.8125 37.7112 4.21875C36.5914 5.625 35.0354 7.52604 33.0432 9.92188C31.051 12.3177 28.6877 15.1172 25.9534 18.3203C23.219 21.5234 20.2372 24.9349 17.0081 28.5547ZM8.02368 26.0156C7.11222 25.1042 6.05102 24.8958 4.84009 25.3906C3.62915 25.8854 3.02368 26.7839 3.02368 28.0859C3.02368 28.4766 3.0953 28.8542 3.23853 29.2188C3.38175 29.5833 3.5966 29.8958 3.88306 30.1562C4.16951 30.4427 4.49504 30.6576 4.85962 30.8008C5.2242 30.944 5.58879 31.0156 5.95337 31.0156C6.31795 31.0156 6.68254 30.944 7.04712 30.8008C7.4117 30.6576 7.73722 30.4427 8.02368 30.1562C8.5966 29.5833 8.88306 28.8932 8.88306 28.0859C8.88306 27.2786 8.5966 26.5885 8.02368 26.0156ZM7.20337 29.3359C6.86483 29.6745 6.44816 29.8438 5.95337 29.8438C5.45858 29.8438 5.04191 29.6745 4.70337 29.3359C4.15649 28.7891 4.0328 28.151 4.33228 27.4219C4.63175 26.6927 5.17212 26.3281 5.95337 26.3281C6.73462 26.3281 7.27498 26.6927 7.57446 27.4219C7.87394 28.151 7.75024 28.7891 7.20337 29.3359ZM12.594 31.7969C11.995 31.7969 11.4482 31.9596 10.9534 32.2852C10.4586 32.6107 10.107 33.0469 9.89868 33.5938C9.66431 34.1667 9.5992 34.7396 9.70337 35.3125C9.80753 35.8854 10.081 36.3802 10.5237 36.7969C10.8101 37.0833 11.1291 37.2982 11.4807 37.4414C11.8323 37.5846 12.1903 37.6562 12.5549 37.6562C12.7372 37.6562 12.926 37.6367 13.1213 37.5977C13.3166 37.5586 13.5055 37.5 13.6877 37.4219C14.2607 37.1875 14.7099 36.8294 15.0354 36.3477C15.3609 35.8659 15.5237 35.3255 15.5237 34.7266C15.5237 33.9193 15.2372 33.2292 14.6643 32.6562C14.0914 32.0833 13.4013 31.7969 12.594 31.7969ZM13.2581 36.3672C12.9976 36.4714 12.6916 36.5104 12.3401 36.4844C11.9885 36.4583 11.6565 36.2891 11.344 35.9766C11.0315 35.6641 10.8622 35.332 10.8362 34.9805C10.8101 34.6289 10.8492 34.3229 10.9534 34.0625C11.0575 33.8021 11.2463 33.5547 11.5198 33.3203C11.7932 33.0859 12.1513 32.9688 12.594 32.9688C13.0627 32.9688 13.4729 33.138 13.8245 33.4766C14.176 33.8151 14.3518 34.2318 14.3518 34.7266C14.3518 35.1693 14.2346 35.5208 14.0002 35.7812C13.7659 36.0417 13.5185 36.237 13.2581 36.3672Z" fill="#EB1616"/>
</g>
<defs>
<clipPath id="clip0_61_6">
<rect width="40" height="40" fill="white" transform="matrix(1 0 0 -1 0.679932 40)"/>
</clipPath>
</defs>
</svg>
