<svg width="40" height="40" viewBox="0 0 40 40" fill="none" xmlns="http://www.w3.org/2000/svg">
<path d="M16.3594 21.6797C16.4115 21.7318 16.4701 21.7708 16.5352 21.7969C16.6003 21.8229 16.6719 21.8359 16.75 21.8359C16.8281 21.8359 16.9062 21.8229 16.9844 21.7969C17.0625 21.7708 17.1276 21.7318 17.1797 21.6797L28.0391 10.8203C28.1693 10.6901 28.2344 10.5469 28.2344 10.3906C28.2344 10.2344 28.1693 10.0911 28.0391 9.96094C27.9349 9.85677 27.7982 9.80469 27.6289 9.80469C27.4596 9.80469 27.3229 9.85677 27.2188 9.96094L16.3594 20.8203C16.2292 20.9505 16.1641 21.0938 16.1641 21.25C16.1641 21.4062 16.2292 21.5495 16.3594 21.6797ZM19.9531 26.7578C21.5938 26.7578 23.1432 26.4453 24.6016 25.8203C26.0339 25.1953 27.2904 24.3424 28.3711 23.2617C29.4518 22.181 30.3047 20.9245 30.9297 19.4922C31.5547 18.0339 31.8672 16.4844 31.8672 14.8438C31.8672 13.2292 31.5547 11.6927 30.9297 10.2344C30.3047 8.80208 29.4518 7.54557 28.3711 6.46484C27.2904 5.38411 26.0339 4.53125 24.6016 3.90625C23.1432 3.28125 21.5938 2.96875 19.9531 2.96875C18.3125 2.96875 16.776 3.28125 15.3438 3.90625C13.9115 4.53125 12.6549 5.38411 11.5742 6.46484C10.4935 7.54557 9.64062 8.80208 9.01562 10.2344C8.39062 11.6927 8.07812 13.2292 8.07812 14.8438C8.07812 16.4844 8.39062 18.0339 9.01562 19.4922C9.64062 20.9245 10.4935 22.181 11.5742 23.2617C12.6549 24.3424 13.9115 25.1953 15.3438 25.8203C16.776 26.4453 18.3125 26.7578 19.9531 26.7578ZM19.9531 4.17969C20.6302 4.17969 21.2943 4.23828 21.9453 4.35547C22.5964 4.47266 23.2214 4.64844 23.8203 4.88281L14.6797 13.9844C14.5755 14.1146 14.5234 14.2643 14.5234 14.4336C14.5234 14.6029 14.5755 14.7396 14.6797 14.8438C14.7318 14.8958 14.7969 14.9349 14.875 14.9609C14.9531 14.987 15.0312 15 15.1094 15C15.1875 15 15.2656 14.987 15.3438 14.9609C15.4219 14.9349 15.487 14.8958 15.5391 14.8438L24.9531 5.42969C26.6458 6.3151 28.0195 7.59766 29.0742 9.27734C30.1289 10.957 30.6562 12.8125 30.6562 14.8438C30.6562 16.3281 30.3828 17.7214 29.8359 19.0234C29.263 20.3255 28.4948 21.4583 27.5312 22.4219C26.5677 23.3854 25.4349 24.1536 24.1328 24.7266C22.8307 25.2734 21.4375 25.5469 19.9531 25.5469C18.599 25.5469 17.3099 25.306 16.0859 24.8242C14.862 24.3424 13.7812 23.6719 12.8438 22.8125L22.5703 13.0859C22.7005 12.9557 22.7656 12.8125 22.7656 12.6562C22.7656 12.5 22.7005 12.3568 22.5703 12.2266C22.4661 12.1224 22.3294 12.0703 22.1602 12.0703C21.9909 12.0703 21.8542 12.1224 21.75 12.2266L11.9844 21.9922C11.151 21.0286 10.4935 19.9414 10.0117 18.7305C9.52995 17.5195 9.28906 16.224 9.28906 14.8438C9.28906 13.3854 9.5625 12.0052 10.1094 10.7031C10.6823 9.40104 11.4505 8.26823 12.4141 7.30469C13.3776 6.34115 14.5104 5.57292 15.8125 5C17.1146 4.45312 18.4948 4.17969 19.9531 4.17969ZM38.8203 13.0859H36.4375C36.2812 13.0859 36.1445 13.1445 36.0273 13.2617C35.9102 13.3789 35.8516 13.5156 35.8516 13.6719V14.2578H34.7969C34.7188 12.2786 34.276 10.4297 33.4688 8.71094C32.6875 6.96615 31.6263 5.44922 30.2852 4.16016C28.944 2.87109 27.388 1.86198 25.6172 1.13281C23.8464 0.377604 21.9583 0 19.9531 0C18.8854 0 17.8307 0.117188 16.7891 0.351562C15.7474 0.585938 14.7513 0.917969 13.8008 1.34766C12.8503 1.77734 11.9453 2.30469 11.0859 2.92969C10.2266 3.58073 9.44531 4.3099 8.74219 5.11719C8.63802 5.2474 8.59245 5.39062 8.60547 5.54688C8.61849 5.70312 8.6901 5.84635 8.82031 5.97656C8.92448 6.08073 9.0612 6.1263 9.23047 6.11328C9.39974 6.10026 9.53646 6.02865 9.64062 5.89844C10.9427 4.41406 12.4922 3.26172 14.2891 2.44141C16.0859 1.62109 17.974 1.21094 19.9531 1.21094C21.8542 1.21094 23.625 1.5625 25.2656 2.26562C26.9323 2.99479 28.3841 3.97786 29.6211 5.21484C30.8581 6.45182 31.8411 7.89062 32.5703 9.53125C33.2734 11.1979 33.625 12.9688 33.625 14.8438C33.625 16.7448 33.2734 18.5286 32.5703 20.1953C31.8411 21.8359 30.8581 23.2747 29.6211 24.5117C28.3841 25.7487 26.9323 26.7318 25.2656 27.4609C23.625 28.1641 21.8542 28.5156 19.9531 28.5156C18.0781 28.5156 16.3073 28.1641 14.6406 27.4609C13 26.7318 11.5612 25.7487 10.3242 24.5117C9.08724 23.2747 8.10417 21.8359 7.375 20.1953C6.64583 18.5286 6.28125 16.7448 6.28125 14.8438C6.28125 13.5677 6.46354 12.3112 6.82812 11.0742C7.19271 9.83724 7.71354 8.67188 8.39062 7.57812C8.49479 7.44792 8.52734 7.29818 8.48828 7.12891C8.44922 6.95964 8.35156 6.83594 8.19531 6.75781C8.0651 6.67969 7.92188 6.65365 7.76562 6.67969C7.60938 6.70573 7.47917 6.79688 7.375 6.95312C6.69792 8.04688 6.16406 9.21224 5.77344 10.4492C5.38281 11.6862 5.16146 12.9557 5.10938 14.2578H4.09375V13.6719C4.09375 13.5156 4.03516 13.3789 3.91797 13.2617C3.80078 13.1445 3.65104 13.0859 3.46875 13.0859H1.08594C0.929688 13.0859 0.792969 13.1445 0.675781 13.2617C0.558594 13.3789 0.5 13.5156 0.5 13.6719V14.8438C0.5 16.1458 0.630208 17.4219 0.890625 18.6719C1.125 19.9219 1.48307 21.1328 1.96484 22.3047C2.44661 23.4766 3.03906 24.5964 3.74219 25.6641C4.47135 26.7318 5.29167 27.7214 6.20312 28.6328C7.01042 29.4141 7.85677 30.1302 8.74219 30.7812C9.65365 31.4323 10.6042 31.9922 11.5938 32.4609C12.5833 32.9297 13.612 33.3073 14.6797 33.5938C15.7214 33.9062 16.8021 34.1146 17.9219 34.2188V36.6016H14.0156C13.2604 36.6016 12.6094 36.875 12.0625 37.4219C11.5156 37.9688 11.2422 38.6328 11.2422 39.4141C11.2422 39.5703 11.3008 39.707 11.418 39.8242C11.5352 39.9414 11.6719 40 11.8281 40H28.1172C28.2734 40 28.4102 39.9414 28.5273 39.8242C28.6445 39.707 28.7031 39.5703 28.7031 39.4141C28.7031 38.6328 28.4297 37.9688 27.8828 37.4219C27.3359 36.875 26.6719 36.6016 25.8906 36.6016H22.0234V34.2188C23.1172 34.1146 24.1979 33.9062 25.2656 33.5938C26.3333 33.3073 27.362 32.9297 28.3516 32.4609C29.3411 31.9922 30.2786 31.4323 31.1641 30.7812C32.0755 30.1302 32.9349 29.4141 33.7422 28.6328C34.6536 27.7214 35.4609 26.7318 36.1641 25.6641C36.8932 24.5964 37.4987 23.4766 37.9805 22.3047C38.4622 21.1328 38.8203 19.9219 39.0547 18.6719C39.3151 17.4219 39.4453 16.1458 39.4453 14.8438V13.6719C39.4453 13.5156 39.3867 13.3789 39.2695 13.2617C39.1523 13.1445 39.0026 13.0859 38.8203 13.0859ZM27.375 38.7891H12.5312C12.6615 38.5026 12.8633 38.2682 13.1367 38.0859C13.4102 37.9036 13.7031 37.8125 14.0156 37.8125H25.8906C26.2292 37.8125 26.5352 37.9036 26.8086 38.0859C27.082 38.2682 27.2708 38.5026 27.375 38.7891ZM20.8125 36.6016H19.1328V34.2969C19.263 34.3229 19.3997 34.3359 19.543 34.3359C19.6862 34.3359 19.8229 34.3359 19.9531 34.3359C20.1094 34.3359 20.2591 34.3359 20.4023 34.3359C20.5456 34.3359 20.6823 34.3229 20.8125 34.2969V36.6016ZM38.2344 14.8438C38.2344 16.0677 38.1172 17.2656 37.8828 18.4375C37.6484 19.6354 37.3034 20.7812 36.8477 21.875C36.3919 22.9688 35.8385 24.0104 35.1875 25C34.5104 25.9896 33.7422 26.9141 32.8828 27.7734C32.0234 28.6328 31.099 29.401 30.1094 30.0781C29.1198 30.7552 28.0716 31.3151 26.9648 31.7578C25.8581 32.2005 24.7188 32.5391 23.5469 32.7734C22.375 33.0078 21.1771 33.125 19.9531 33.125C18.7552 33.125 17.5573 33.0078 16.3594 32.7734C15.1875 32.5391 14.0547 32.2005 12.9609 31.7578C11.8672 31.3151 10.8255 30.7552 9.83594 30.0781C8.84635 29.401 7.92188 28.6328 7.0625 27.7734C6.17708 26.9141 5.40885 25.9896 4.75781 25C4.08073 24.0104 3.51432 22.9688 3.05859 21.875C2.60286 20.7812 2.27083 19.6354 2.0625 18.4375C1.82812 17.2656 1.71094 16.0677 1.71094 14.8438V14.2578H2.88281V14.8438C2.88281 17.2135 3.32552 19.4401 4.21094 21.5234C5.1224 23.5807 6.35286 25.3841 7.90234 26.9336C9.45182 28.4831 11.2552 29.7005 13.3125 30.5859C15.3958 31.4974 17.6094 31.9531 19.9531 31.9531C20.3958 31.9531 20.832 31.9336 21.2617 31.8945C21.6914 31.8555 22.1276 31.8099 22.5703 31.7578C22.7266 31.7318 22.8568 31.6536 22.9609 31.5234C23.0651 31.3932 23.1042 31.237 23.0781 31.0547C23.0521 30.8984 22.974 30.7747 22.8438 30.6836C22.7135 30.5924 22.5573 30.5599 22.375 30.5859C21.9844 30.638 21.5872 30.6771 21.1836 30.7031C20.7799 30.7292 20.3698 30.7422 19.9531 30.7422C17.8177 30.7422 15.8125 30.3516 13.9375 29.5703C12.0365 28.763 10.3698 27.6693 8.9375 26.2891C7.50521 24.9089 6.35938 23.2943 5.5 21.4453C4.64062 19.5703 4.17188 17.5781 4.09375 15.4688H5.10938C5.1875 17.4479 5.63021 19.2969 6.4375 21.0156C7.24479 22.7604 8.31901 24.2773 9.66016 25.5664C11.0013 26.8555 12.5573 27.8646 14.3281 28.5938C16.099 29.349 17.974 29.7266 19.9531 29.7266C21.9583 29.7266 23.8464 29.349 25.6172 28.5938C27.388 27.8646 28.9375 26.8555 30.2656 25.5664C31.5938 24.2773 32.6615 22.7604 33.4688 21.0156C34.276 19.2969 34.7188 17.4479 34.7969 15.4688H35.8516C35.7995 17.0833 35.5065 18.6458 34.9727 20.1562C34.4388 21.6667 33.6771 23.0729 32.6875 24.375C31.6979 25.7031 30.513 26.8555 29.1328 27.832C27.7526 28.8086 26.2682 29.5443 24.6797 30.0391C24.5234 30.0911 24.4062 30.1888 24.3281 30.332C24.25 30.4753 24.237 30.625 24.2891 30.7812C24.3411 30.9375 24.4388 31.0547 24.582 31.1328C24.7253 31.2109 24.875 31.224 25.0312 31.1719C26.75 30.651 28.3451 29.8633 29.8164 28.8086C31.2878 27.7539 32.5703 26.5104 33.6641 25.0781C34.7578 23.5938 35.5977 21.9857 36.1836 20.2539C36.7695 18.5221 37.0625 16.7318 37.0625 14.8828C37.0625 14.8828 37.0625 14.8763 37.0625 14.8633C37.0625 14.8503 37.0625 14.8438 37.0625 14.8438V14.2578H38.2344V14.8438Z" fill="#EB1616"/>
</svg>
